<mxfile host="app.diagrams.net" agent="Mozilla/5.0 (Windows NT 10.0; Win64; x64) AppleWebKit/537.36 (KHTML, like Gecko) Chrome/138.0.0.0 Safari/537.36" version="28.0.9">
  <diagram name="Halaman-1" id="8HT29v_8cALNTstIkLce">
    <mxGraphModel dx="1426" dy="777" grid="1" gridSize="10" guides="1" tooltips="1" connect="1" arrows="1" fold="1" page="1" pageScale="1" pageWidth="827" pageHeight="1169" math="0" shadow="0">
    <mxGraphModel dx="1678" dy="914" grid="1" gridSize="10" guides="1" tooltips="1" connect="1" arrows="1" fold="1" page="1" pageScale="1" pageWidth="827" pageHeight="1169" math="0" shadow="0">
      <root>
        <mxCell id="0" />
        <mxCell id="1" parent="0" />
@@ -118,6 +118,57 @@
        <mxCell id="dvX_TlzrjFDYtX3Ioxcw-43" value="45" style="shape=cylinder3;whiteSpace=wrap;html=1;boundedLbl=1;backgroundOutline=1;size=15;fillColor=#e1d5e7;strokeColor=#9673a6;" parent="1" vertex="1">
          <mxGeometry x="820" y="600" width="60" height="55" as="geometry" />
        </mxCell>
        <mxCell id="UPUISvp1UHRlLBhxg8sI-1" value="Mulai" style="rounded=1;whiteSpace=wrap;html=1;arcSize=50;" vertex="1" parent="1">
          <mxGeometry x="1110" y="50" width="120" height="40" as="geometry" />
        </mxCell>
        <mxCell id="UPUISvp1UHRlLBhxg8sI-2" value="" style="edgeStyle=orthogonalEdgeStyle;rounded=0;orthogonalLoop=1;jettySize=auto;html=1;" edge="1" parent="1" source="UPUISvp1UHRlLBhxg8sI-3" target="UPUISvp1UHRlLBhxg8sI-6">
          <mxGeometry relative="1" as="geometry" />
        </mxCell>
        <mxCell id="UPUISvp1UHRlLBhxg8sI-3" value="Input Nilai A, B,C ..." style="shape=parallelogram;perimeter=parallelogramPerimeter;whiteSpace=wrap;html=1;fixedSize=1;" vertex="1" parent="1">
          <mxGeometry x="1080" y="302.5" width="180" height="60" as="geometry" />
        </mxCell>
        <mxCell id="UPUISvp1UHRlLBhxg8sI-4" value="add Library&amp;nbsp;#include &amp;lt;stdlib.h&amp;gt;" style="rounded=0;whiteSpace=wrap;html=1;" vertex="1" parent="1">
          <mxGeometry x="1110" y="120" width="120" height="60" as="geometry" />
        </mxCell>
        <mxCell id="UPUISvp1UHRlLBhxg8sI-6" value="&lt;div&gt;Function Short&lt;/div&gt;" style="rounded=0;whiteSpace=wrap;html=1;align=center;" vertex="1" parent="1">
          <mxGeometry x="1090" y="390" width="160" height="80" as="geometry" />
        </mxCell>
        <mxCell id="UPUISvp1UHRlLBhxg8sI-11" value="" style="endArrow=classic;html=1;rounded=0;exitX=0.5;exitY=1;exitDx=0;exitDy=0;entryX=0.5;entryY=0;entryDx=0;entryDy=0;" edge="1" parent="1" source="UPUISvp1UHRlLBhxg8sI-1" target="UPUISvp1UHRlLBhxg8sI-4">
          <mxGeometry width="50" height="50" relative="1" as="geometry">
            <mxPoint x="1156" y="420" as="sourcePoint" />
            <mxPoint x="1206" y="370" as="targetPoint" />
          </mxGeometry>
        </mxCell>
        <mxCell id="UPUISvp1UHRlLBhxg8sI-13" value="" style="edgeStyle=orthogonalEdgeStyle;rounded=0;orthogonalLoop=1;jettySize=auto;html=1;" edge="1" parent="1" source="UPUISvp1UHRlLBhxg8sI-14" target="UPUISvp1UHRlLBhxg8sI-15">
          <mxGeometry relative="1" as="geometry" />
        </mxCell>
        <mxCell id="UPUISvp1UHRlLBhxg8sI-14" value="Output Berurutan" style="shape=parallelogram;perimeter=parallelogramPerimeter;whiteSpace=wrap;html=1;fixedSize=1;" vertex="1" parent="1">
          <mxGeometry x="1110" y="510" width="120" height="60" as="geometry" />
        </mxCell>
        <mxCell id="UPUISvp1UHRlLBhxg8sI-15" value="Selsai" style="rounded=1;whiteSpace=wrap;html=1;arcSize=50;" vertex="1" parent="1">
          <mxGeometry x="1110" y="615" width="120" height="40" as="geometry" />
        </mxCell>
        <mxCell id="UPUISvp1UHRlLBhxg8sI-16" value="Int A, B, C ..., compare" style="rounded=0;whiteSpace=wrap;html=1;" vertex="1" parent="1">
          <mxGeometry x="1110" y="210" width="120" height="60" as="geometry" />
        </mxCell>
        <mxCell id="UPUISvp1UHRlLBhxg8sI-17" value="" style="endArrow=classic;html=1;rounded=0;exitX=0.5;exitY=1;exitDx=0;exitDy=0;entryX=0.5;entryY=0;entryDx=0;entryDy=0;" edge="1" parent="1" source="UPUISvp1UHRlLBhxg8sI-4" target="UPUISvp1UHRlLBhxg8sI-16">
          <mxGeometry width="50" height="50" relative="1" as="geometry">
            <mxPoint x="1170" y="110" as="sourcePoint" />
            <mxPoint x="1170" y="140" as="targetPoint" />
          </mxGeometry>
        </mxCell>
        <mxCell id="UPUISvp1UHRlLBhxg8sI-18" value="" style="endArrow=classic;html=1;rounded=0;entryX=0.5;entryY=0;entryDx=0;entryDy=0;" edge="1" parent="1" source="UPUISvp1UHRlLBhxg8sI-16" target="UPUISvp1UHRlLBhxg8sI-3">
          <mxGeometry width="50" height="50" relative="1" as="geometry">
            <mxPoint x="1370" y="260" as="sourcePoint" />
            <mxPoint x="1370" y="310" as="targetPoint" />
          </mxGeometry>
        </mxCell>
        <mxCell id="UPUISvp1UHRlLBhxg8sI-19" value="" style="edgeStyle=orthogonalEdgeStyle;rounded=0;orthogonalLoop=1;jettySize=auto;html=1;entryX=0.5;entryY=0;entryDx=0;entryDy=0;exitX=0.5;exitY=1;exitDx=0;exitDy=0;" edge="1" parent="1" source="UPUISvp1UHRlLBhxg8sI-6" target="UPUISvp1UHRlLBhxg8sI-14">
          <mxGeometry relative="1" as="geometry">
            <mxPoint x="1230" y="420" as="sourcePoint" />
            <mxPoint x="1230" y="448" as="targetPoint" />
          </mxGeometry>
        </mxCell>
      </root>
    </mxGraphModel>
  </diagram>
